<svg xmlns="http://www.w3.org/2000/svg" style="display: none;"><symbol id="food-and-restaurant" viewBox="0 0 512 512"><title>food-and-restaurant</title><g> <g> <path d="M76.151,287.885c-7.846,0-15.363,6.899-15,15c0.364,8.127,6.591,15,15,15c7.846,0,15.363-6.899,15-15 C90.787,294.758,84.56,287.885,76.151,287.885z"/> </g> </g><g> <g> <path d="M307.026,349.522c-7.846,0-15.363,6.899-15,15c0.364,8.127,6.591,15,15,15c7.846,0,15.363-6.899,15-15 C321.662,356.395,315.435,349.522,307.026,349.522z"/> </g> </g><g> <g> <path d="M291.685,141.98c-7.846,0-15.363,6.899-15,15c0.364,8.127,6.59,15,15,15c7.846,0,15.363-6.899,15-15 C306.321,148.853,300.094,141.98,291.685,141.98z"/> </g> </g><g> <g> <path d="M496.674,299.303L512,299.636V209.12L325.829,74.005L0,206.681v231.314h99.331l0.079-15.158 c0.101-19.029,15.664-34.51,34.692-34.51c18.769,0,34.325,15.267,34.677,34.033l0.278,13.649H512V332.665l-15.327,0.333 c-4.649,0.099-9.015-1.648-12.292-4.925c-3.185-3.185-4.938-7.419-4.938-11.922s1.754-8.738,4.938-11.922 C487.658,300.952,492.019,299.203,496.674,299.303z M321.7,108.078l129.094,93.691H91.611L321.7,108.078z M482,271.498 c-7.02,2.236-13.451,6.137-18.832,11.518c-18.271,18.271-18.271,48,0,66.271c5.381,5.382,11.812,9.282,18.832,11.518v45.21 H196.789c-2.88-11.338-8.811-20.742-17.351-29.138c-12.169-11.962-28.27-18.55-45.336-18.55c-30.38,0-56.023,21.163-62.888,49.521 L30,408.128V231.769h452V271.498z"/> </g> </g><g> <g> <path d="M372.435,248.036c-25.63,0-46.481,20.851-46.481,46.48c0,25.63,20.851,46.481,46.481,46.481 c25.629,0,46.48-20.851,46.48-46.481C418.915,268.887,398.064,248.036,372.435,248.036z M372.435,310.998 c-9.087,0-16.481-7.394-16.481-16.481s7.394-16.48,16.481-16.48s16.48,7.393,16.48,16.48 C388.915,303.604,381.522,310.998,372.435,310.998z"/> </g> </g><g> <g> <path d="M149.271,247.821c-17.01,0-30.848,13.838-30.848,30.848s13.838,30.848,30.848,30.848s30.848-13.838,30.848-30.848 C180.119,261.659,166.28,247.821,149.271,247.821z"/> </g> </g></symbol><symbol id="clock" viewBox="0 0 372.96 372.96"><title>clock</title><g> <g> <path d="M186.48,0C83.49,0,0,83.49,0,186.48s83.49,186.48,186.48,186.48s186.48-83.49,186.48-186.48 C372.828,83.545,289.415,0.132,186.48,0z M194.48,356.56v-32.8c0-4.418-3.582-8-8-8s-8,3.582-8,8v32.8 C90.759,352.372,20.588,282.201,16.4,194.48h32.8c4.418,0,8-3.582,8-8s-3.582-8-8-8H16.4C20.588,90.759,90.759,20.588,178.48,16.4 v32.8c0,4.418,3.582,8,8,8s8-3.582,8-8V16.4c87.721,4.188,157.892,74.359,162.08,162.08h-32.8c-4.418,0-8,3.582-8,8s3.582,8,8,8 h0.08h32.8C352.449,282.23,282.232,352.412,194.48,356.56z"/> </g> </g><g> <g> <path d="M270.88,260.88l-76.4-77.68v-80.72c0-4.418-3.582-8-8-8s-8,3.582-8,8v84c0.009,2.099,0.842,4.11,2.32,5.6l78.64,80 c3.093,3.159,8.161,3.213,11.32,0.12C273.919,269.107,273.973,264.039,270.88,260.88z"/> </g> </g></symbol><symbol id="cheese" viewBox="0 0 512 512"><title>cheese</title><path d="M475.429,283.427c0.112-21.511,15.108-40.075,36.114-44.709l0.274-19.291H0v219.429 c0.03,10.087,8.199,18.256,18.286,18.286h247.771c4.332-21.215,22.953-36.482,44.606-36.57 c21.653-0.088,40.398,15.025,44.903,36.204l138.149,0.366c10.087-0.03,18.256-8.199,18.286-18.286V328.227 C490.803,323.732,475.589,305.095,475.429,283.427z M201.874,252.524c0.464-1.107,1.113-2.128,1.92-3.017 c0.859-0.846,1.887-1.5,3.017-1.92c3.404-1.434,7.338-0.677,9.966,1.92c0.826,0.874,1.478,1.898,1.92,3.017 c1.632,3.828,0.472,8.275-2.821,10.82s-7.889,2.545-11.182,0S200.243,256.353,201.874,252.524z M36.571,292.57 c0-15.148,12.28-27.429,27.429-27.429s27.429,12.28,27.429,27.429S79.148,319.999,64,319.999 C48.87,319.954,36.616,307.7,36.571,292.57z M82.286,429.713c-15.148,0-27.429-12.28-27.429-27.429s12.28-27.429,27.429-27.429 s27.429,12.28,27.429,27.429C109.67,417.414,97.416,429.669,82.286,429.713z M192,393.141c-30.297,0-54.857-24.56-54.857-54.857 s24.56-54.857,54.857-54.857s54.857,24.56,54.857,54.857C246.833,368.571,222.287,393.117,192,393.141z M308.206,390.49 c-0.889,0.807-1.91,1.456-3.017,1.92c-2.214,0.975-4.735,0.975-6.949,0c-2.296-0.833-4.104-2.641-4.937-4.937 c-0.975-2.214-0.975-4.735,0-6.949c0.464-1.107,1.113-2.128,1.92-3.017c3.667-3.383,9.316-3.383,12.983,0 c0.807,0.889,1.456,1.91,1.92,3.017c0.512,1.085,0.763,2.275,0.731,3.474C310.848,386.424,309.897,388.751,308.206,390.49z M329.143,338.284c-18.49,0-35.159-11.138-42.234-28.22c-7.076-17.082-3.165-36.745,9.91-49.819 c13.074-13.074,32.737-16.985,49.819-9.91c17.082,7.076,28.22,23.745,28.22,42.234 C374.848,317.814,354.386,338.275,329.143,338.284z M421.303,298.239c0.442-1.119,1.094-2.143,1.92-3.017 c3.667-3.383,9.316-3.383,12.983,0c0.826,0.874,1.478,1.898,1.92,3.017c1.632,3.828,0.472,8.275-2.821,10.82 s-7.889,2.545-11.182,0C420.831,306.514,419.671,302.067,421.303,298.239z M483.006,428.147 c-6.859,6.859-16.163,10.711-25.863,10.709c-20.198,0-36.571-16.374-36.571-36.571s16.374-36.571,36.571-36.571 s36.571,16.374,36.571,36.571C493.717,411.984,489.865,421.288,483.006,428.147z"/><path d="M299.232,123.874c-3.782-1.471-8.081-0.245-10.518,3c-13.251,15.652-34.124,22.609-54.116,18.036 c-19.992-4.573-35.765-19.912-40.893-39.768c-1.704-6.745-2.134-13.749-1.268-20.652c0.563-3.815-1.488-7.536-5.013-9.098 l-44.045-19.116c-4.108-1.798-8.763-1.888-12.937-0.25C98.252,68.579,69.65,88.87,47.166,115.106 c-21.278,24.898-36.592,54.324-44.777,86.036h474.75L299.232,123.874z"/></symbol><symbol id="knife" viewBox="-32 0 511 511.98401"><title>knife</title><path d="m428.097656 18.585938c-25.046875-24.808594-65.578125-24.765626-90.347656.042968l-124.160156 124.140625c-2.003906 2.003907-3.136719 4.714844-3.136719 7.550781 0 2.835938 1.132813 5.546876 3.117187 7.550782l60.371094 60.375c2.09375 2.089844 4.824219 3.113281 7.554688 3.113281 2.730468 0 5.460937-1.042969 7.550781-3.113281l90.558594-90.539063c18.050781.511719 35.480469-5.652343 48.46875-18.410156.023437-.023437.042969-.042969.066406-.066406 12.117187-12.136719 18.792969-28.222657 18.792969-45.308594 0-17.089844-6.675782-33.175781-18.835938-45.335937zm-30.101562 60.417968c-4.160156 4.160156-9.644532 6.25-15.105469 6.25s-10.921875-2.089844-15.082031-6.25c-8.296875-8.320312-8.296875-21.847656 0-30.167968 8.320312-8.359376 21.867187-8.320313 30.1875 0 8.320312 8.320312 8.296875 21.847656 0 30.167968zm0 0" fill="#607d8b"/><path d="m334.273438 248.367188-105.601563-105.597657c-2.003906-1.984375-4.734375-3.117187-7.550781-3.117187-3.476563.023437-5.632813 1.152344-7.636719 3.199218l-203.648437 208.769532c-6.039063 6.039062-9.34375 14.101562-9.34375 22.675781 0 8.597656 3.328124 16.664063 9.363281 22.679687l90.667969 90.667969c2.007812 2.023438 4.695312 3.046875 7.425781 3.046875 1.40625 0 2.835937-.277344 4.203125-.828125 1.683594-.683593 3.113281-1.816406 4.199218-3.160156l218.027344-223.335937c4.054688-4.183594 4.011719-10.859376-.105468-15zm0 0" fill="#cfd8dc"/><path d="m349.421875 263.515625-15.148437-15.148437c-2.027344-2.027344-5.289063-2.644532-7.59375-3.113282-2.859376.019532-5.589844 1.171875-7.574219 3.199219l-218.667969 224c-1.960938 2.003906-3.050781 4.886719-3.050781 7.679687 0 2.835938 1.132812 5.546876 3.117187 7.550782l14.933594 14.933594c6.226562 6.253906 14.417969 9.367187 22.65625 9.367187 8.234375 0 16.511719-3.15625 22.824219-9.472656l188.523437-193.855469c6.015625-6.039062 9.324219-14.039062 9.324219-22.550781s-3.308594-16.554688-9.34375-22.589844zm0 0" fill="#eceff1"/><path d="m92.886719 359.238281c-8.296875-8.320312-21.84375-8.363281-30.1875 0-4.03125 4.03125-6.25 9.386719-6.25 15.125 0 5.695313 2.21875 11.050781 6.25 15.039063 4.160156 4.160156 9.621093 6.25 15.105469 6.25 5.460937 0 10.921874-2.089844 15.082031-6.25 4.03125-4.011719 6.25-9.363282 6.25-15.082032-.019531-5.695312-2.21875-11.050781-6.25-15.082031zm0 0" fill="#607d8b"/><path d="m281.429688 221.296875c-2.730469 0-5.460938-1.046875-7.550782-3.117187l-60.332031-60.328126c-4.160156-4.160156-4.160156-10.921874 0-15.082031l124.074219-124.078125c24.195312-24.191406 66.347656-24.167968 90.496094 0 12.097656 12.054688 18.773437 28.140625 18.773437 45.230469 0 17.085937-6.65625 33.171875-18.75 45.246094-12.90625 12.929687-30.230469 19.457031-48.640625 18.476562l-90.515625 90.515625c-2.09375 2.089844-4.824219 3.136719-7.554687 3.136719zm-45.246094-71 45.246094 45.25 86.550781-86.550781c2.367187-2.367188 5.566406-3.539063 9.023437-3.027344 13.484375 1.898438 26.644532-2.453125 36.054688-11.90625 8.0625-8.0625 12.5-18.773438 12.5-30.164062 0-11.390626-4.4375-22.101563-12.5-30.164063-16.128906-16.128906-44.203125-16.128906-60.332032 0zm0 0"/><path d="m382.890625 85.253906c-5.460937 0-10.921875-2.089844-15.082031-6.230468-8.320313-8.320313-8.320313-21.84375 0-30.164063 8.34375-8.320313 21.824218-8.320313 30.167968 0 8.316407 8.320313 8.316407 21.84375 0 30.164063-4.160156 4.140624-9.625 6.230468-15.085937 6.230468zm-7.550781-28.886718 7.550781 7.554687zm0 0"/><path d="m77.78125 395.652344c-5.460938 0-10.921875-2.089844-15.082031-6.226563-8.320313-8.320312-8.320313-21.847656 0-30.167969 8.34375-8.320312 21.824219-8.320312 30.167969 0 8.316406 8.320313 8.316406 21.847657 0 30.167969-4.160157 4.136719-9.625 6.226563-15.085938 6.226563zm-7.527344-28.863282 7.550782 7.550782v-.019532zm0 0"/><path d="m138.09375 511.898438c-8.214844 0-16.386719-3.113282-22.613281-9.34375l-105.582031-105.601563c-12.476563-12.476563-12.476563-32.765625 0-45.246094l203.542968-208.855469c4.136719-4.222656 10.902344-4.265624 15.082032-.191406 4.222656 4.097656 4.308593 10.859375.214843 15.082032l-203.648437 208.941406c-4.265625 4.246094-4.265625 11.027344-.105469 15.167968l105.578125 105.597657c4.160156 4.183593 10.941406 4.160156 15.101562 0l188.460938-193.769531c4.246094-4.265626 4.246094-11.027344.105469-15.1875l-60.351563-60.332032c-4.160156-4.160156-4.160156-10.921875 0-15.082031s10.921875-4.160156 15.082032 0l60.351562 60.351563c12.460938 12.480468 12.460938 32.789062 0 45.246093l-188.457031 193.773438c-6.292969 6.292969-14.527344 9.449219-22.761719 9.449219zm0 0"/><path d="m107.949219 490.585938c-2.6875 0-5.378907-1-7.46875-3.027344-4.203125-4.117188-4.289063-10.882813-.167969-15.082032l218.75-224.023437c4.097656-4.203125 10.859375-4.289063 15.082031-.191406 4.203125 4.117187 4.289063 10.878906.171875 15.082031l-218.730468 224.023438c-2.089844 2.152343-4.863282 3.21875-7.636719 3.21875zm0 0"/></symbol><symbol id="cheese-1" viewBox="0 0 512 512"><title>cheese-1</title><g> <g> <circle cx="286" cy="406" r="15"/> </g> </g><g> <g> <circle cx="76" cy="316" r="15"/> </g> </g><g> <g> <path d="M181,301c-33.084,0-60,26.916-60,60s26.916,60,60,60s60-26.916,60-60S214.084,301,181,301z M181,391 c-16.542,0-30-13.458-30-30s13.458-30,30-30s30,13.458,30,30S197.542,391,181,391z"/> </g> </g><g> <g> <path d="M346,301c-24.813,0-45,20.187-45,45s20.187,45,45,45s45-20.187,45-45S370.813,301,346,301z M346,361 c-8.271,0-15-6.729-15-15s6.729-15,15-15s15,6.729,15,15S354.271,361,346,361z"/> </g> </g><g> <g> <path d="M181,121c-33.645,0-60,19.766-60,45s26.355,45,60,45s60-19.766,60-45S214.645,121,181,121z M181,181 c-18.313,0-30-8.884-30-15c0-6.116,11.687-15,30-15s30,8.884,30,15C211,172.116,199.314,181,181,181z"/> </g> </g><g> <g> <path d="M482,331c3.439,0,6.804,0.573,10.001,1.703c4.592,1.623,9.685,0.916,13.66-1.896c3.976-2.812,6.339-7.378,6.339-12.247 V256c0-5.136-2.763-10.01-6.993-12.684l-123.513-77.963c-7.841-4.937-18.225-1.684-21.835,6.863 C357.222,177.56,351.885,181,346,181c-8.271,0-15-6.729-15-15c0-3.647,1.323-7.161,3.727-9.895 c6.071-6.909,4.549-17.618-3.214-22.558L174.053,33.345c-4.446-2.829-10.05-3.118-14.761-0.762 C80.715,71.872,21.743,145.801,3.98,234.617C1.499,247.895-0.023,252.85,0,256.131V466c0,8.284,6.716,15,15,15h61 c8.284,0,15-6.716,15-15c0-8.271,6.729-15,15-15s15,6.729,15,15c0,8.284,6.716,15,15,15h361c8.284,0,15-6.716,15-15v-62.56 c0-4.869-2.363-9.436-6.339-12.247c-3.977-2.812-9.069-3.519-13.66-1.896C488.804,390.427,485.44,391,482,391 c-16.542,0-30-13.458-30-30S465.458,331,482,331z M33.397,240.5c14.962-74.809,63.984-140.467,131.849-177.2l138.231,87.966 C301.851,155.965,301,160.941,301,166c0,24.813,20.187,45,45,45c11.948,0,23.144-4.729,31.396-12.757L445.134,241H33.297 L33.397,240.5z M482,421v30H148.43c-6.191-17.461-22.874-30-42.43-30c-19.556,0-36.239,12.539-42.43,30H30V271h452v30 c-33.084,0-60,26.916-60,60S448.916,421,482,421z"/> </g> </g></symbol><symbol id="fat" viewBox="0 0 116 116"><title>fat</title><path style="fill-rule:evenodd;clip-rule:evenodd;" d="M115.94,43.026c-0.442-0.517-0.738-1.182-1.2-1.68 c-0.75,0.074,0.61-0.693-0.24-0.72c0.198-0.679-0.338-0.622-0.24-1.2c-1.213-0.467-2.078-1.281-3.119-1.92 c-1.135-0.625-2.315-1.206-3.36-1.92c-2.666-0.853-4.809-2.231-7.68-2.88c-0.896-0.784-2.507-0.854-3.601-1.441 c-1.491-0.268-2.351-1.169-4.08-1.199c-1-0.76-2.54-0.98-3.84-1.44c-0.459-0.421-1.251-0.509-1.92-0.72 c-0.582-0.299-1.167-0.594-1.92-0.721c-0.49-0.428-1.083-0.461-1.68-0.72c-0.148-0.063-0.549-0.405-0.721-0.479 c-0.517-0.226-1.472-0.536-1.92-0.721c-3.392-1.394-6.428-3.419-9.6-5.039c-3.396-2.012-6.852-3.642-10.32-5.28 c-1.191-0.564-2.512-1.464-4.08-1.2c-0.453-0.054-0.529,0.269-0.96,0.24c-11.244,1.715-20.692,5.227-29.52,9.359 c-2.315,0.885-4.131,2.27-6.48,3.12c-0.705,0.896-2.094,1.107-2.88,1.92c-1.131,0.55-2.348,1.013-3.12,1.92 c-2.265,0.935-3.979,2.422-6,3.601c-0.958,0.642-1.687,1.514-2.88,1.92c-0.74,0.939-1.621,1.739-2.4,2.64 c-0.111,1.546-0.093,2.275-0.479,3.84c-0.606,0.993-0.608,2.592-0.96,3.841c-0.328,2.951-0.677,5.883-0.72,9.119 c-0.187,6.747,1.029,12.092,2.16,17.521c0.587,1.014,0.656,2.544,1.2,3.6c0.369,1.232,0.772,2.428,1.2,3.601 c0.893,2.388,1.94,4.619,2.88,6.96c1.153,2.126,2.045,4.514,3.12,6.72c0.289,1.312,1.077,2.123,1.2,3.6 c0.727,0.953,0.745,2.615,2.16,2.881c-0.04,0.52,0.851,0.108,1.2,0.239c0.349-0.131,1.24,0.28,1.199-0.239h3.12 c1.653,0.426,3.986,0.174,6,0.239c3.87,0.291,7.809,0.513,11.761,0.72c20.315,0.245,40.201,0.918,60.959,0.721 c3.962-0.201,8.1,1.16,11.521,0c1.509-1.371,2.729-3.03,2.4-6.24c0.351-2.608,0.359-5.56,0.479-8.4 c-0.249-0.87-0.75-1.489-1.44-1.92c-0.315-0.885-0.798-1.602-1.44-2.16c-0.616-1.783-1.802-2.998-1.92-5.279 c-0.125-1.326,0.138-2.263,0.24-3.361c0.476-0.403,0.382-1.377,0.96-1.68c0.111-0.768,0.914-0.847,0.96-1.681 c0.851-0.749,1.823-1.376,2.88-1.92c0.537-0.262,1.202-0.397,1.68-0.72c0.46-0.42,1.478-0.282,1.44-1.2 C116.12,60.059,115.826,51.46,115.94,43.026z M47.06,20.706c1.968,1.232,3.758,2.642,6,3.6c0.848,0.753,1.904,1.296,3.119,1.681 c0.623,0.638,2.662,1.107,3.36,0.24c-0.024-1.736-1.544-1.977-2.16-3.121c-2.063-0.975-3.787-2.292-5.76-3.359 c0.746-0.534,1.911-0.649,3.12-0.721c2.828,1.013,4.151,3.529,7.919,3.601c0.531-0.03,0.102-1.019,0.241-1.441 c3.465,2.136,6.951,4.249,10.56,6.24c1.7,1.101,3.904,1.695,5.521,2.88c2.054,0.665,3.989,1.451,5.76,2.4 c4.315,1.286,8.366,2.835,12.481,4.32c2.136,0.665,4.197,1.402,6,2.4c1.155,0.204,1.946,0.773,2.88,1.2 c0.733,0.626,2.184,0.536,2.399,1.68H72.02c-1.283-0.396-2.138-1.222-3.361-1.68c0.2-1.161,0.684-2.037,0.72-3.36 c-0.239-0.72-0.72-1.201-1.439-1.44c-1.579,0.261-1.802,1.879-2.4,3.121c-1.154-0.126-2.013-0.548-2.88-0.96 c0.398-1.821,0.473-4.369-1.679-4.321c-1.621,0.219-1.113,2.568-1.44,4.081c-0.405,0.475-0.262,1.498-0.479,2.16 c-0.315,0.566-0.102,1.658-0.481,2.16c-1.745-0.096-3.908,0.229-5.279-0.24c0.224-2.096,0.659-3.98,0.959-6 c0.344-1.428,1.509-4.457,0-5.521c-1.567-0.208-1.527,1.192-2.399,1.681c-0.701,1.938-1.134,4.146-1.681,6.241 c-0.646-1.194-1.903-1.778-2.64-2.881c0.301-2.1,0.641-4.159,0.96-6.24c0.595-0.42,2.576,0.516,3.12-0.479 c-0.168-2.392-2.454-2.665-3.84-3.84c-0.86-0.42-1.688-0.872-2.4-1.44c-0.612-0.026-0.84-0.44-1.2-0.72 c-0.459-0.101-1.032-0.087-0.959-0.72C44.38,21.387,45.776,21.102,47.06,20.706z M72.98,54.306 C72.69,54.331,72.833,53.958,72.98,54.306c0.185,0.054,0.473,0.007,0.479,0.24c0.413-0.013,0.615,0.185,0.72,0.479 c0.997-0.229,0.049,0.719,0,0c-0.33,0.011-0.526-0.112-0.72-0.239v-0.24C73.273,54.493,72.986,54.54,72.98,54.306z M72.259,47.827 h12c0.436,0.732-0.52,1.78-0.72,2.64c-0.911,0.369-1.009,1.551-1.92,1.92C76.627,52.74,72.97,51.756,72.259,47.827z M64.82,42.067 h-2.88c0.196-0.764,0.153-1.768,0.479-2.4C63.31,40.377,64.695,40.592,64.82,42.067z M49.94,41.827h-2.88 c0.097-1.024-0.233-2.473,0.24-3.12c0.991,0.275,1.888,0.275,2.879,0C49.978,39.625,49.867,40.634,49.94,41.827z M41.54,25.026 c0.388-0.067,0.413,0.228,0.72,0.24c1.252,1.069,2.831,1.81,4.32,2.641c-0.388,0.893-0.816,1.742-1.2,2.64 c-0.317,0.962-0.475,2.085-0.96,2.88c-1.425-0.895-2.835-1.805-4.08-2.88C40.595,28.562,41.027,26.754,41.54,25.026z M39.86,34.386c1.396,0.763,2.585,1.735,3.84,2.64c-0.098,1.742-0.323,3.357-0.72,4.801c-1.461,0.181-2.177-0.384-3.601-0.24 C39.345,38.992,39.371,36.456,39.86,34.386z M35.3,24.546c0.771-0.269,1.423-0.657,2.399-0.72c0.204-0.355,0.604-0.516,1.2-0.48 c-0.236,1.844-1.167,2.994-1.2,5.04c-1.188-0.011-1.45-0.949-2.399-1.2c-0.525-0.595-1.396-0.844-1.921-1.439 C33.492,24.818,34.704,24.99,35.3,24.546z M32.419,29.106c0.388-0.067,0.414,0.227,0.721,0.24c1.062,1.098,2.622,1.697,3.6,2.881 c-0.062,1.857-0.588,3.251-0.48,5.28c-0.729,0.432-1.393-0.909-2.159-1.201c-0.845-0.435-1.393-1.167-2.4-1.44 C31.556,32.563,32.264,31.111,32.419,29.106z M31.22,38.707h0.72c0.381,0.819,1.651,0.749,2.16,1.44 c0.792,0.326,2.062,0.177,1.92,1.439h-4.8V38.707z M27.379,28.147c0.724-0.558,1.466-1.095,2.641-1.2 c0.385,0.62-0.437,1.692-0.481,2.64c-0.402,0.798-0.435,1.966-0.72,2.88c-1.11-0.09-1.65-0.75-2.16-1.44 C26.808,29.975,27.282,29.249,27.379,28.147z M25.699,34.866c1.124,0.155,1.503,1.057,2.4,1.44v4.8 c-0.929-0.031-0.947-0.973-1.681-1.199c-0.471-0.409-1.199-0.56-1.44-1.2C25.255,37.463,25.241,35.928,25.699,34.866z M21.14,31.026c1.231,0.049,1.51,1.051,2.16,1.681c-0.353,1.328-0.663,2.698-0.961,4.08c-0.968-0.393-1.83-0.89-2.399-1.681 C20.061,33.468,20.575,32.222,21.14,31.026z M19.22,38.227c1.232,0.688,3.037,0.802,2.88,2.879h-3.121 C18.885,39.971,19.056,39.104,19.22,38.227z M14.659,38.467c0.017-0.943,0.116-1.804,0.48-2.4v-0.721h0.72 c0.561,0.859-0.003,2.299-0.24,3.121c-0.149,0.651,0.305,1.905-0.24,2.16h-0.479C13.882,40.636,14.603,38.909,14.659,38.467z M10.579,37.507c0.727,0.588-0.182,1.562,0,2.4c-0.94-0.02-1.497-0.424-2.16-0.721C8.828,38.315,9.952,38.16,10.579,37.507z M6.739,69.667c0.127-0.369,0.25-0.016,0.24,0.24C6.853,70.276,6.728,69.922,6.739,69.667z M7.459,67.747 c0.046-0.272,0.241-0.133,0.24,0C7.653,68.019,7.458,67.88,7.459,67.747z M108.981,66.067c-4.705,1.215-7.819,4.021-11.04,6.72 c-0.504,1.017-1.308,1.732-1.92,2.64c-0.44,1.785-0.8,3.285-0.48,5.281c1.673,4.328,4.343,7.657,9.12,8.88h3.6 c-0.524,2.195-0.236,5.203-0.959,7.2c-15.924-1.037-33.804-0.116-50.161-0.72c0.303-1.777,1.334-2.826,1.68-4.561 c0.699-1.205,1.426-3.262,0-4.08c-1.499-0.139-1.995,0.725-2.4,1.68c-0.902,0.378-0.727,1.833-1.439,2.4 c-0.248,1.033-0.6,1.961-1.2,2.641c0.064,1.344-0.406,2.153-1.92,1.92c-0.531-1.103,0.985-1.988,1.2-3.12 c0.529-1.071,1.535-1.665,1.439-3.361c-0.082-0.878-0.821-1.097-1.439-1.439c-2.188,0.213-2.42,2.38-3.36,3.84 c-1.239,1.16-1.193,3.606-3.12,4.08c-0.682-0.803,0.66-1.118,0.721-1.92c0.647-0.511,0.022-1.768-0.24-2.16 c-1.538-0.178-2.426,0.295-2.881,1.199c-0.279,0.44-0.627,0.812-0.959,1.2c-0.22,0.421-0.083,1.198-0.48,1.44 c-8.082,0.849-16.924-0.521-24.96,0.24c0.091-1.27,1.067-1.652,1.2-2.881c0.639-0.641,0.756-1.803,0.96-2.88 c-0.354-0.766-0.474-1.767-1.681-1.68c-2.172,0.067-1.996,2.483-2.159,4.56c-0.907,0.107-0.347-1.254-0.96-1.439 c0.028-0.691-0.132-1.571,0.239-1.92c0.198-1.322,0.796-2.244,0.96-3.6c0.561-0.96,0.799-2.242,0.961-3.601 c0.689-0.835,0.582-2.556-0.481-2.88c-1.642-0.043-1.91,1.291-2.4,2.4c-0.858,0.741-1.123,2.076-1.68,3.119 c-0.607-0.468,0.133-1.611,0.24-2.16c0.094-0.865,0.311-1.609,0.48-2.399c0.384-1.456,0.756-2.925,1.2-4.321 c0.311-1.529,0.805-2.875,1.2-4.319c0.425-1.22,0.964-3.581-0.481-4.08c-0.904-0.259-0.93,0.604-1.2,0.96 c-0.289,0.382-0.743,0.692-0.72,1.2c-0.759,0.601-1.079,1.64-1.44,2.64c-1.062,1.658-1.369,4.071-2.16,6.001 c-1.504-1.091-0.046-3.151,0-4.8c0.67-1.41,0.771-3.391,1.44-4.801c0.223-1.856,0.953-3.205,1.199-5.039 c0.292-1.645,1.305-3.641-0.24-4.561c-1.914,0.086-2.09,1.91-2.88,3.12c-0.519,1.401-1.183,2.657-1.439,4.319 c-0.39,0.172-0.39-1.131,0-0.959c0.131-0.35-0.28-1.241,0.239-1.2c-0.018-0.897,0.102-1.659,0.481-2.16 c0.021-1.739,0.425-3.095,0.72-4.56c0.12-1.721,0.548-3.133,0.721-4.801c0.722-1.145,0.517-3.151-0.96-3.359 c-2.287,0.113-1.965,2.836-2.641,4.56c-0.542,1.778-0.969,3.671-1.439,5.521c-0.545-0.256-0.092-1.509-0.24-2.16 c-0.371-0.35-0.211-1.229-0.24-1.92v-4.561c-0.192-0.832,0.357-0.922,0.24-1.68c-0.053-2.293,0.002-4.479,0.24-6.481v-0.72 c2.604,1.26,5.585,2.468,9.119,3.12c4.806,0.887,10.566,1.077,16.561,1.2c11.917,0.644,24.616,0.504,36.72,0.96 c0.424,0.401-0.213,0.805,0,1.68v2.16c0.583,3.498,2.651,5.509,5.04,7.2c1.732,0.439,4.062,0.698,6,0.239 c4.568-2.232,8.524-5.076,9.121-11.279c8.407-0.152,17.683,0.562,24.48-1.2c0.141,6.419-0.294,13.414,0.239,19.44H108.981z M107.061,85.267c-0.812-0.066-1.379-0.381-2.4-0.24c-2.445-1.394-4.617-3.062-5.28-6.239c0.346-3.736,3.531-4.63,5.521-6.72 c0.279-0.039,0.427,0.053,0.479,0.239c-0.444,0.995-0.611,2.269-0.96,3.36v2.401C104.64,81.128,106.059,82.989,107.061,85.267z M79.22,38.947c0.654,0.379,1.213,0.704,1.68,0.96c0.673,0.367,1.637,0.829,2.16,0.96c0.88,0.22,1.312,0.264,2.16,0.239 c0.61-0.845-0.675-1.453-0.961-2.159c-0.81-0.39-1.432-0.968-2.159-1.44c-1.688-0.792-3.032-1.928-4.8-2.64 c-1.41-0.991-2.804-1.997-4.561-2.639c-1.228-1.254-3.291-1.67-4.8-2.641h-0.72v0.96c2.368,2.352,5.094,4.346,8.159,6 C76.593,37.425,78.164,38.336,79.22,38.947z M53.06,56.707c-0.479-0.962-0.962-1.919-1.441-2.88 c-0.854-0.825-1.772-1.588-2.64-2.4c-1.829-0.571-3.907-0.893-6.481-0.72c-0.146,0.014-0.284,0.036-0.24,0.24 c-1.23-0.192-1.574,0.505-2.64,0.479c-0.495,0.545-1.227,0.853-1.92,1.2c-0.202,0.917-1.353,0.887-2.16,1.2 c-0.509,1.331-1.502,2.178-2.16,3.359c-0.74,2.272-0.624,5.182-0.239,6.721c0.076,0.309,0.186,0.508,0.239,0.72 c0.168,0.672,0.706,1.157,0.721,1.44c0.015,0.277,0.153,0.106,0.239,0.239c0.553,0.854,1.127,1.542,1.681,2.16 c1.952,0.928,3.947,1.812,6.96,1.681c5.037-0.483,7.85-3.191,9.84-6.721c0.51-1.65,0.545-3.774,0.48-6 C53.02,57.386,53.039,57.048,53.06,56.707z M37.7,57.667C37.724,57.957,37.351,57.814,37.7,57.667 c-0.113-0.754,0.646-0.634,0.72-1.2C39.068,56.826,38.004,57.469,37.7,57.667z M49.7,61.987c-1.171,1.629-2.765,2.835-4.56,3.84 c-1.68-0.721-3.588-1.213-4.56-2.641c-0.243-2.323,0.382-3.777,0.96-5.279c1.585-1.135,3.113-2.327,5.28-2.881 c1.683,0.317,2.302,1.698,3.12,2.881C49.947,59.353,50.014,60.862,49.7,61.987z M98.18,57.186c-0.744,0.316-1.331-0.711-1.68,0 c-2.129-0.129-2.825,1.175-3.6,2.4c-0.202,1.642,0.326,2.553,0.96,3.36c2.217,1.115,4.681-0.227,5.76-1.681 c0.358-1.393-0.082-2.172-0.48-3.359C98.539,57.948,98.389,57.538,98.18,57.186z M97.7,61.026c-0.581,0.767-2.331,1.004-3.12,0.24 c-0.51-2.303,1.021-3.463,2.88-2.64C97.709,59.259,97.747,60.099,97.7,61.026z M25.22,61.747c2.39-2.154-1.688-6.102-3.12-3.12 C22.504,60.302,22.866,62.02,25.22,61.747z M56.659,59.346c-0.159,1.6,0.426,2.455,1.68,2.641c0.89-0.311,1.559-0.842,1.681-1.92 C59.65,58.489,57.575,57.955,56.659,59.346z M68.419,65.827c0.358-0.283,0.678-0.603,0.96-0.96 c0.424-2.347-2.305-3.863-3.359-1.92v1.68C66.679,65.167,66.941,66.105,68.419,65.827z M79.7,70.627 c-0.626-0.093-1.316-0.123-1.68-0.479h-3.361c-0.146,0.014-0.284,0.035-0.24,0.239H73.94c-2.714,1.103-4.867,3.88-5.761,6.481 c-0.369,0.831-0.212,2.188-0.239,3.36c0.444,1.234,1.248,2.111,1.68,3.359c0.71,1.05,1.685,1.836,2.64,2.641 c1.647,0.624,4.113,0.624,5.761,0c3.518-2.098,6.764-5.695,5.52-11.761C82.805,72.641,81.216,71.67,79.7,70.627z M76.339,82.387 c-0.928-0.032-0.946-0.974-1.68-1.2c-0.328-0.631-1.009-0.909-1.2-1.68c-0.161-1.201,0.223-1.857,0.24-2.88 c0.735-1.186,2.096-1.744,2.88-2.88c1.772,0.228,3,1,3.6,2.4C80.034,79.362,78.379,81.067,76.339,82.387z M39.14,77.107 c-1.327-1.108-3.459-2.02-5.761-1.92c-0.146,0.007-0.283,0.042-0.239,0.24c-1.375-0.095-2.352,0.208-3.12,0.721 c-1.117,0.163-1.626,0.934-2.641,1.2c-1.22,1.34-2.502,2.618-3.36,4.32c-0.428,4.668,1.17,7.31,3.6,9.12 c1.47,0.21,2.662,0.699,4.321,0.72c1.162-0.197,2.226-0.493,3.36-0.72c2.207-1.312,3.87-3.169,5.039-5.52 c0.418-2.08,0.322-4.908-0.239-6.72C39.492,78.355,39.488,77.56,39.14,77.107z M33.14,86.948c-0.888-0.073-0.9-1.021-1.44-1.441 c-0.692-0.188-0.599-1.16-0.96-1.68c-0.097-1.137,0.429-1.651,0.24-2.88c1.289-1.015,2.359-2.759,4.8-1.921 c0.217,0.424,0.537,0.744,0.96,0.961c-0.021,0.34-0.039,0.68,0.24,0.72C37.133,84.221,35.585,86.031,33.14,86.948z M67.46,86.948 c-1.583,0.257-1.329,2.35-1.439,4.079c0.676,0.765,1.11,1.771,2.639,1.681C71.947,92.062,70.811,86.789,67.46,86.948z M80.179,90.787c0.799,0.875,2.563,0.865,2.641-0.72C82.751,88.286,79.461,88.474,80.179,90.787z"/></symbol><symbol id="cheese-2" viewBox="0 0 212.061 212.061"><title>cheese-2</title><path d="M209.806,22.781c-0.036-1.122-0.577-2.165-1.472-2.836c-0.897-0.675-2.051-0.916-3.134-0.628L8.429,69.456 c-1.306,0.332-2.327,1.349-2.665,2.656c-0.253,0.978-6.174,24.136-5.741,43.105c0.433,19.128,7.372,36.628,7.666,37.364 c0.114,0.285,0.262,0.552,0.442,0.797c0.57,0.787,14.118,19.283,26.14,25.309c14.193,7.116,50.385,13.834,51.918,14.116 c0.222,0.04,0.446,0.061,0.67,0.061c0.817,0,1.617-0.27,2.271-0.779l121.508-94.686c0.931-0.725,1.459-1.851,1.422-3.031 L209.806,22.781z M185.354,31.999L92.4,94.519c-3.484,0.505-18.59,2.295-32.515-1.898C46.99,88.74,25.223,79.049,16.421,75.044 L185.354,31.999z M116.919,96.547c-1.055,0.566-4.907-0.415-7.695-2.706l8.117-6.008 C118.07,91.597,117.702,95.698,116.919,96.547z M80.118,139.031c-1.046,13.142,1.534,36.783,2.587,45.562 c-10.37-2.081-34.765-7.321-45.12-12.51c-9.568-4.8-21.259-20.081-23.2-22.679c-1.032-2.721-6.605-18.128-6.975-34.355 c-0.27-11.899,2.217-25.989,3.939-34.196c7.113,3.271,31.773,14.439,46.408,18.847c7.882,2.371,15.967,3.031,22.534,3.031 c3.338,0,6.246-0.173,8.574-0.377C86.249,110.632,80.967,128.346,80.118,139.031z M113.913,162.966 c-2.488-4.528-4.281-9.277-5.048-13.459c-0.947-5.164-0.045-7.802,1.016-8.491c0.541-0.35,1.232-0.523,2.039-0.523 c1.6,0,3.652,0.678,5.874,1.985c3.417,2.006,6.955,5.34,9.997,9.371L113.913,162.966z M133.971,147.771 c-8.989-12.208-20.703-17.756-28.113-12.955c-7.904,5.134-5.076,20.281,2.336,33.041l-18.332,14.285 c-1.107-9.55-3.305-30.876-2.377-42.527c1.039-13.08,9.755-39.15,9.842-39.414c0.011-0.033,0.002-0.066,0.013-0.099l4.678-3.147 c1.9,2.349,4.576,4.369,7.68,5.681c2.235,0.946,4.406,1.418,6.36,1.418c1.721,0,3.274-0.368,4.554-1.108 c3.854-2.223,4.476-7.762,4.503-10.861c0.03-3.37-0.569-6.767-1.639-9.562l79.141-53.229l1.998,63.426L133.971,147.771z"/><path d="M184.181,57.625c-3.435-1.465-7.541-0.801-11.269,1.804c-3.256,2.277-6.046,5.882-7.855,10.147 c-1.809,4.261-2.465,8.772-1.842,12.698c0.711,4.489,3.09,7.899,6.526,9.356c1.202,0.512,2.484,0.765,3.805,0.765 c2.457,0,5.041-0.873,7.464-2.569c3.256-2.277,6.046-5.882,7.855-10.147c1.81-4.262,2.464-8.773,1.842-12.698 C189.994,62.492,187.617,59.078,184.181,57.625z M182.063,76.791c-1.257,2.963-3.186,5.506-5.291,6.982 c-1.593,1.111-3.103,1.494-4.141,1.057c-0.002-0.004-0.002-0.004-0.002-0.004c-1.041-0.44-1.811-1.794-2.115-3.713 c-0.402-2.537,0.086-5.69,1.344-8.653c1.258-2.963,3.186-5.506,5.291-6.982c1.158-0.808,2.273-1.234,3.197-1.234 c0.345,0,0.662,0.058,0.946,0.18c1.041,0.44,1.811,1.794,2.115,3.713C183.81,70.676,183.321,73.828,182.063,76.791z"/><path d="M149.249,96.796c-6.215,0-11.085,6.491-11.085,14.78s4.87,14.78,11.085,14.78c6.215,0,11.085-6.491,11.085-14.78 S155.465,96.796,149.249,96.796z M149.249,118.964c-1.506,0-3.695-2.879-3.695-7.39c0-4.51,2.188-7.39,3.695-7.39 c1.506,0,3.695,2.879,3.695,7.39C152.944,116.086,150.756,118.964,149.249,118.964z"/></symbol><symbol id="cheese-3" viewBox="0 0 511.999 511.999"><title>cheese-3</title><g> <path style="fill:#F8C442;" d="M504.215,179.101L151.54,56.502c-2.067-0.718-4.36-0.268-6.001,1.179L9.839,177.29 c-1.306,1.152-2.055,2.808-2.055,4.55v268.42c0,3.715,3.31,6.556,6.983,5.994l484.302-74.203c2.96-0.453,5.146-2.999,5.146-5.994 V179.106L504.215,179.101L504.215,179.101z"/> <circle style="fill:#F8C442;" cx="108.012" cy="257.314" r="41.626"/> </g><path style="fill:#F4A240;" d="M149.636,257.317c0,22.983-18.641,41.624-41.624,41.624c-4.221,0-8.296-0.63-12.128-1.795 c17.076-5.203,29.495-21.066,29.495-39.829c0-18.775-12.419-34.638-29.495-39.841c3.832-1.165,7.908-1.795,12.128-1.795 C130.995,215.681,149.636,234.322,149.636,257.317z"/><circle style="fill:#F8C442;" cx="385.763" cy="318.172" r="41.626"/><path style="fill:#F4A240;" d="M427.39,318.176c0,22.983-18.641,41.624-41.624,41.624c-4.221,0-8.296-0.63-12.128-1.795 c17.076-5.203,29.495-21.066,29.495-39.829c0-18.774-12.419-34.638-29.495-39.841c3.832-1.165,7.908-1.795,12.128-1.795 C408.749,276.54,427.39,295.181,427.39,318.176z"/><circle style="fill:#F8C442;" cx="263.378" cy="118.239" r="20.814"/><path style="fill:#F4A240;" d="M284.192,118.242c0,11.492-9.321,20.813-20.813,20.813c-2.111,0-4.148-0.316-6.065-0.898 c8.539-2.602,14.749-10.535,14.749-19.916c0-9.388-6.211-17.32-14.749-19.922c1.917-0.582,3.954-0.898,6.065-0.898 C274.87,97.422,284.192,106.743,284.192,118.242z"/><circle style="fill:#F8C442;" cx="218.281" cy="367.903" r="20.814"/><path style="fill:#F4A240;" d="M239.096,367.902c0,11.492-9.321,20.813-20.813,20.813c-2.111,0-4.148-0.316-6.065-0.898 c8.539-2.602,14.749-10.535,14.749-19.916c0-9.388-6.211-17.32-14.749-19.922c1.917-0.582,3.954-0.898,6.065-0.898 C229.775,347.081,239.096,356.403,239.096,367.902z"/><path d="M107.832,306.233c-27.111,0-49.167-22.056-49.167-49.167s22.056-49.167,49.167-49.167s49.167,22.056,49.167,49.167 S134.943,306.233,107.832,306.233z M107.832,222.882c-18.85,0-34.184,15.336-34.184,34.184s15.335,34.184,34.184,34.184 s34.184-15.336,34.184-34.184S126.682,222.882,107.832,222.882z"/><path d="M385.916,367.164c-27.111,0-49.167-22.056-49.167-49.167s22.056-49.167,49.167-49.167c27.111,0,49.167,22.056,49.167,49.167 S413.027,367.164,385.916,367.164z M385.916,283.812c-18.85,0-34.184,15.336-34.184,34.184s15.335,34.184,34.184,34.184 c18.85,0,34.184-15.336,34.184-34.184S404.766,283.812,385.916,283.812z"/><circle cx="63.145" cy="363.987" r="8.575"/><circle cx="99.252" cy="402.941" r="8.575"/><circle cx="327.821" cy="233.892" r="8.575"/><circle cx="261.11" cy="293.631" r="8.575"/><circle cx="310.672" cy="367.783" r="8.575"/><circle cx="466.107" cy="257.064" r="8.575"/><circle cx="192.742" cy="225.322" r="8.575"/><circle cx="175.592" cy="112.256" r="8.575"/><circle cx="107.832" cy="132.012" r="8.575"/><circle cx="158.083" cy="333.953" r="8.575"/><path d="M511.997,178.714c-0.002-0.338-0.033-0.669-0.078-0.995c-0.011-0.079-0.022-0.158-0.035-0.237 c-0.058-0.335-0.134-0.662-0.235-0.98c-0.017-0.053-0.038-0.103-0.056-0.155c-0.095-0.278-0.207-0.547-0.332-0.809 c-0.034-0.072-0.066-0.145-0.103-0.216c-0.146-0.281-0.309-0.55-0.487-0.809c-0.056-0.081-0.117-0.158-0.176-0.237 c-0.151-0.201-0.312-0.395-0.481-0.579c-0.061-0.067-0.118-0.136-0.181-0.201c-0.212-0.214-0.439-0.41-0.675-0.596 c-0.092-0.073-0.186-0.143-0.282-0.212c-0.249-0.179-0.504-0.348-0.774-0.495c-0.069-0.038-0.143-0.068-0.214-0.104 c-0.242-0.123-0.49-0.231-0.746-0.328c-0.059-0.022-0.112-0.055-0.172-0.075l-118.588-41.223c-3.906-1.356-8.176,0.708-9.535,4.616 c-1.358,3.908,0.708,8.177,4.617,9.536l76.227,26.498l-430.395-1.582L149.742,63.367l95.111,33.064 c-5.994,5.199-9.796,12.861-9.796,21.4c0,15.621,12.709,28.33,28.33,28.33s28.33-12.71,28.33-28.33c0-1.806-0.177-3.57-0.501-5.283 l54.587,18.977c3.905,1.358,8.177-0.707,9.535-4.616c1.358-3.908-0.708-8.177-4.617-9.536L153.875,48.942 c-4.617-1.602-9.756-0.592-13.42,2.638L4.594,171.331c-0.049,0.043-0.09,0.092-0.138,0.135c-0.111,0.103-0.219,0.208-0.324,0.318 C1.508,174.33,0,177.829,0,181.505v268.738c0,3.96,1.723,7.711,4.727,10.291c2.478,2.127,5.611,3.272,8.83,3.272 c0.684,0,1.372-0.052,2.059-0.157l167.172-25.615c4.09-0.626,6.897-4.45,6.271-8.539c-0.626-4.09-4.446-6.905-8.539-6.27 L14.982,448.589V184.46l482.036,1.772v188.501l-276.641,42.387c-4.089,0.626-6.897,4.449-6.271,8.539 c0.567,3.706,3.76,6.357,7.395,6.357c0.378,0,0.759-0.028,1.144-0.088l277.845-42.57c6.669-1.021,11.509-6.659,11.509-13.406 v-197.19C512,178.746,511.997,178.73,511.997,178.714z M263.385,131.177c-7.36,0-13.348-5.988-13.348-13.348 s5.988-13.348,13.348-13.348s13.348,5.988,13.348,13.348S270.745,131.177,263.385,131.177z"/><path d="M218.235,396.115c-15.621,0-28.33-12.71-28.33-28.33s12.709-28.33,28.33-28.33s28.33,12.71,28.33,28.33 S233.857,396.115,218.235,396.115z M218.235,354.436c-7.36,0-13.348,5.988-13.348,13.348s5.988,13.348,13.348,13.348 c7.36,0,13.348-5.988,13.348-13.348S225.596,354.436,218.235,354.436z"/></symbol><symbol id="chart" viewBox="0 0 425 425"><title>chart</title><polygon points="290.833,156.667 134.167,156.667 78.333,268.333 346.667,268.333 "/><polygon points="361.667,298.333 63.333,298.333 0,425 425,425 "/><polygon points="212.5,0 149.167,126.667 275.833,126.667 "/></symbol></svg>